<?xml version="1.0" encoding="UTF-8" standalone="no"?>
<!DOCTYPE svg PUBLIC "-//W3C//DTD SVG 1.1//EN"
 "http://www.w3.org/Graphics/SVG/1.1/DTD/svg11.dtd">
<!-- Generated by graphviz version 2.43.0 (0)
 -->
<!-- Title: G Pages: 1 -->
<svg width="2190pt" height="215pt"
 viewBox="0.00 0.00 2189.66 215.00" xmlns="http://www.w3.org/2000/svg" xmlns:xlink="http://www.w3.org/1999/xlink">
<g id="graph0" class="graph" transform="scale(1 1) rotate(0) translate(4 211)">
<title>G</title>
<polygon fill="white" stroke="transparent" points="-4,4 -4,-211 2185.66,-211 2185.66,4 -4,4"/>
<!-- sb6 -->
<g id="node1" class="node">
<title>sb6</title>
<path fill="none" stroke="red" d="M238.34,-101C238.34,-101 226.34,-101 226.34,-101 220.34,-101 214.34,-95 214.34,-89 214.34,-89 214.34,-77 214.34,-77 214.34,-71 220.34,-65 226.34,-65 226.34,-65 238.34,-65 238.34,-65 244.34,-65 250.34,-71 250.34,-77 250.34,-77 250.34,-89 250.34,-89 250.34,-95 244.34,-101 238.34,-101"/>
<text text-anchor="middle" x="232.34" y="-78.8" font-family="Times,serif" font-size="14.00">sb6</text>
</g>
<!-- sb7 -->
<g id="node2" class="node">
<title>sb7</title>
<path fill="none" stroke="red" d="M310.05,-101C310.05,-101 298.09,-101 298.09,-101 292.1,-101 286.12,-95.02 286.12,-89.03 286.12,-89.03 286.12,-76.97 286.12,-76.97 286.12,-70.98 292.1,-65 298.09,-65 298.09,-65 310.05,-65 310.05,-65 316.04,-65 322.02,-70.98 322.02,-76.97 322.02,-76.97 322.02,-89.03 322.02,-89.03 322.02,-95.02 316.04,-101 310.05,-101"/>
<text text-anchor="middle" x="304.07" y="-78.8" font-family="Times,serif" font-size="14.00">sb7</text>
</g>
<!-- sb6&#45;&gt;sb7 -->
<g id="edge1" class="edge">
<title>sb6&#45;&gt;sb7</title>
<path fill="none" stroke="red" stroke-width="2.65" d="M250.44,-83C250.44,-83 276.22,-83 276.22,-83"/>
<polygon fill="red" stroke="red" stroke-width="2.65" points="276.22,-86.5 286.22,-83 276.22,-79.5 276.22,-86.5"/>
</g>
<!-- sb20 -->
<g id="node21" class="node">
<title>sb20</title>
<path fill="none" stroke="royalblue" d="M388.47,-36C388.47,-36 369.57,-36 369.57,-36 363.57,-36 357.57,-30 357.57,-24 357.57,-24 357.57,-12 357.57,-12 357.57,-6 363.57,0 369.57,0 369.57,0 388.47,0 388.47,0 394.47,0 400.47,-6 400.47,-12 400.47,-12 400.47,-24 400.47,-24 400.47,-30 394.47,-36 388.47,-36"/>
<text text-anchor="middle" x="379.02" y="-13.8" font-family="Times,serif" font-size="14.00">sb20</text>
</g>
<!-- sb6&#45;&gt;sb20 -->
<g id="edge2" class="edge">
<title>sb6&#45;&gt;sb20</title>
<path fill="none" stroke="royalblue" d="M232.66,-64.89C232.66,-45.66 232.66,-18 232.66,-18 232.66,-18 347.74,-18 347.74,-18"/>
<polygon fill="royalblue" stroke="royalblue" points="347.74,-21.5 357.74,-18 347.74,-14.5 347.74,-21.5"/>
</g>
<!-- sb12 -->
<g id="node3" class="node">
<title>sb12</title>
<path fill="none" stroke="red" d="M766.2,-101C766.2,-101 747.29,-101 747.29,-101 741.29,-101 735.29,-95 735.29,-89 735.29,-89 735.29,-77 735.29,-77 735.29,-71 741.29,-65 747.29,-65 747.29,-65 766.2,-65 766.2,-65 772.2,-65 778.2,-71 778.2,-77 778.2,-77 778.2,-89 778.2,-89 778.2,-95 772.2,-101 766.2,-101"/>
<text text-anchor="middle" x="756.75" y="-78.8" font-family="Times,serif" font-size="14.00">sb12</text>
</g>
<!-- sb7&#45;&gt;sb12 -->
<g id="edge3" class="edge">
<title>sb7&#45;&gt;sb12</title>
<path fill="none" stroke="red" d="M321.81,-77C321.81,-77 725.29,-77 725.29,-77"/>
<polygon fill="red" stroke="red" points="725.29,-80.5 735.29,-77 725.29,-73.5 725.29,-80.5"/>
</g>
<!-- sb8 -->
<g id="node12" class="node">
<title>sb8</title>
<path fill="none" stroke="royalblue" d="M385,-147C385,-147 373.03,-147 373.03,-147 367.05,-147 361.07,-141.02 361.07,-135.03 361.07,-135.03 361.07,-122.97 361.07,-122.97 361.07,-116.98 367.05,-111 373.03,-111 373.03,-111 385,-111 385,-111 390.98,-111 396.97,-116.98 396.97,-122.97 396.97,-122.97 396.97,-135.03 396.97,-135.03 396.97,-141.02 390.98,-147 385,-147"/>
<text text-anchor="middle" x="379.02" y="-124.8" font-family="Times,serif" font-size="14.00">sb8</text>
</g>
<!-- sb7&#45;&gt;sb8 -->
<g id="edge4" class="edge">
<title>sb7&#45;&gt;sb8</title>
<path fill="none" stroke="royalblue" stroke-width="2.45" d="M304.66,-101.18C304.66,-114.04 304.66,-129 304.66,-129 304.66,-129 351.02,-129 351.02,-129"/>
<polygon fill="royalblue" stroke="royalblue" stroke-width="2.45" points="351.02,-132.5 361.02,-129 351.02,-125.5 351.02,-132.5"/>
</g>
<!-- sb13 -->
<g id="node4" class="node">
<title>sb13</title>
<path fill="none" stroke="red" d="M845.97,-101C845.97,-101 825.97,-101 825.97,-101 819.97,-101 813.97,-95 813.97,-89 813.97,-89 813.97,-77 813.97,-77 813.97,-71 819.97,-65 825.97,-65 825.97,-65 845.97,-65 845.97,-65 851.97,-65 857.97,-71 857.97,-77 857.97,-77 857.97,-89 857.97,-89 857.97,-95 851.97,-101 845.97,-101"/>
<text text-anchor="middle" x="835.97" y="-78.8" font-family="Times,serif" font-size="14.00">sb13</text>
</g>
<!-- sb12&#45;&gt;sb13 -->
<g id="edge5" class="edge">
<title>sb12&#45;&gt;sb13</title>
<path fill="none" stroke="red" stroke-width="2.65" d="M777.98,-83C777.98,-83 803.85,-83 803.85,-83"/>
<polygon fill="red" stroke="red" stroke-width="2.65" points="803.85,-86.5 813.85,-83 803.85,-79.5 803.85,-86.5"/>
</g>
<!-- sb14 -->
<g id="node5" class="node">
<title>sb14</title>
<path fill="none" stroke="red" d="M924.64,-101C924.64,-101 905.74,-101 905.74,-101 899.74,-101 893.74,-95 893.74,-89 893.74,-89 893.74,-77 893.74,-77 893.74,-71 899.74,-65 905.74,-65 905.74,-65 924.64,-65 924.64,-65 930.64,-65 936.64,-71 936.64,-77 936.64,-77 936.64,-89 936.64,-89 936.64,-95 930.64,-101 924.64,-101"/>
<text text-anchor="middle" x="915.19" y="-78.8" font-family="Times,serif" font-size="14.00">sb14</text>
</g>
<!-- sb13&#45;&gt;sb14 -->
<g id="edge6" class="edge">
<title>sb13&#45;&gt;sb14</title>
<path fill="none" stroke="red" stroke-width="2.65" d="M858.04,-83C858.04,-83 883.79,-83 883.79,-83"/>
<polygon fill="red" stroke="red" stroke-width="2.65" points="883.79,-86.5 893.79,-83 883.79,-79.5 883.79,-86.5"/>
</g>
<!-- sb21 -->
<g id="node22" class="node">
<title>sb21</title>
<path fill="none" stroke="royalblue" d="M1003.09,-155C1003.09,-155 984.19,-155 984.19,-155 978.19,-155 972.19,-149 972.19,-143 972.19,-143 972.19,-131 972.19,-131 972.19,-125 978.19,-119 984.19,-119 984.19,-119 1003.09,-119 1003.09,-119 1009.09,-119 1015.09,-125 1015.09,-131 1015.09,-131 1015.09,-143 1015.09,-143 1015.09,-149 1009.09,-155 1003.09,-155"/>
<text text-anchor="middle" x="993.64" y="-132.8" font-family="Times,serif" font-size="14.00">sb21</text>
</g>
<!-- sb13&#45;&gt;sb21 -->
<g id="edge7" class="edge">
<title>sb13&#45;&gt;sb21</title>
<path fill="none" stroke="royalblue" d="M836.66,-101.05C836.66,-115.37 836.66,-133 836.66,-133 836.66,-133 962.14,-133 962.14,-133"/>
<polygon fill="royalblue" stroke="royalblue" points="962.14,-136.5 972.14,-133 962.14,-129.5 962.14,-136.5"/>
</g>
<!-- sb15 -->
<g id="node6" class="node">
<title>sb15</title>
<path fill="none" stroke="red" d="M1003.09,-101C1003.09,-101 984.19,-101 984.19,-101 978.19,-101 972.19,-95 972.19,-89 972.19,-89 972.19,-77 972.19,-77 972.19,-71 978.19,-65 984.19,-65 984.19,-65 1003.09,-65 1003.09,-65 1009.09,-65 1015.09,-71 1015.09,-77 1015.09,-77 1015.09,-89 1015.09,-89 1015.09,-95 1009.09,-101 1003.09,-101"/>
<text text-anchor="middle" x="993.64" y="-78.8" font-family="Times,serif" font-size="14.00">sb15</text>
</g>
<!-- sb14&#45;&gt;sb15 -->
<g id="edge8" class="edge">
<title>sb14&#45;&gt;sb15</title>
<path fill="none" stroke="red" stroke-width="2.65" d="M936.63,-83C936.63,-83 962.23,-83 962.23,-83"/>
<polygon fill="red" stroke="red" stroke-width="2.65" points="962.23,-86.5 972.23,-83 962.23,-79.5 962.23,-86.5"/>
</g>
<!-- sb15&#45;&gt;sb13 -->
<g id="edge10" class="edge">
<title>sb15&#45;&gt;sb13</title>
<path fill="none" stroke="royalblue" d="M986.66,-64.88C986.66,-62.03 986.66,-60 986.66,-60 986.66,-60 836.66,-60 836.66,-60 836.66,-60 836.66,-60.49 836.66,-60.49"/>
<polygon fill="royalblue" stroke="royalblue" points="833.16,-54.88 836.66,-64.88 840.16,-54.88 833.16,-54.88"/>
</g>
<!-- sb16 -->
<g id="node7" class="node">
<title>sb16</title>
<path fill="none" stroke="red" d="M1081.54,-101C1081.54,-101 1062.64,-101 1062.64,-101 1056.64,-101 1050.64,-95 1050.64,-89 1050.64,-89 1050.64,-77 1050.64,-77 1050.64,-71 1056.64,-65 1062.64,-65 1062.64,-65 1081.54,-65 1081.54,-65 1087.54,-65 1093.54,-71 1093.54,-77 1093.54,-77 1093.54,-89 1093.54,-89 1093.54,-95 1087.54,-101 1081.54,-101"/>
<text text-anchor="middle" x="1072.09" y="-78.8" font-family="Times,serif" font-size="14.00">sb16</text>
</g>
<!-- sb15&#45;&gt;sb16 -->
<g id="edge9" class="edge">
<title>sb15&#45;&gt;sb16</title>
<path fill="none" stroke="red" stroke-width="2.65" d="M1015.08,-83C1015.08,-83 1040.68,-83 1040.68,-83"/>
<polygon fill="red" stroke="red" stroke-width="2.65" points="1040.68,-86.5 1050.68,-83 1040.68,-79.5 1040.68,-86.5"/>
</g>
<!-- sb17 -->
<g id="node8" class="node">
<title>sb17</title>
<path fill="none" stroke="red" d="M1378.31,-101C1378.31,-101 1141.31,-101 1141.31,-101 1135.31,-101 1129.31,-95 1129.31,-89 1129.31,-89 1129.31,-77 1129.31,-77 1129.31,-71 1135.31,-65 1141.31,-65 1141.31,-65 1378.31,-65 1378.31,-65 1384.31,-65 1390.31,-71 1390.31,-77 1390.31,-77 1390.31,-89 1390.31,-89 1390.31,-95 1384.31,-101 1378.31,-101"/>
<text text-anchor="middle" x="1259.81" y="-78.8" font-family="Times,serif" font-size="14.00">sb17</text>
</g>
<!-- sb16&#45;&gt;sb17 -->
<g id="edge11" class="edge">
<title>sb16&#45;&gt;sb17</title>
<path fill="none" stroke="red" stroke-width="2.65" d="M1093.62,-83C1093.62,-83 1119.28,-83 1119.28,-83"/>
<polygon fill="red" stroke="red" stroke-width="2.65" points="1119.28,-86.5 1129.28,-83 1119.28,-79.5 1119.28,-86.5"/>
</g>
<!-- sb19 -->
<g id="node9" class="node">
<title>sb19</title>
<path fill="none" stroke="red" d="M2026.76,-101C2026.76,-101 1516.76,-101 1516.76,-101 1510.76,-101 1504.76,-95 1504.76,-89 1504.76,-89 1504.76,-77 1504.76,-77 1504.76,-71 1510.76,-65 1516.76,-65 1516.76,-65 2026.76,-65 2026.76,-65 2032.76,-65 2038.76,-71 2038.76,-77 2038.76,-77 2038.76,-89 2038.76,-89 2038.76,-95 2032.76,-101 2026.76,-101"/>
<text text-anchor="middle" x="1771.76" y="-78.8" font-family="Times,serif" font-size="14.00">sb19</text>
</g>
<!-- sb17&#45;&gt;sb19 -->
<g id="edge12" class="edge">
<title>sb17&#45;&gt;sb19</title>
<path fill="none" stroke="red" d="M1390.33,-92C1390.33,-92 1494.62,-92 1494.62,-92"/>
<polygon fill="red" stroke="red" points="1494.62,-95.5 1504.62,-92 1494.62,-88.5 1494.62,-95.5"/>
</g>
<!-- sb18 -->
<g id="node16" class="node">
<title>sb18</title>
<path fill="none" stroke="royalblue" d="M1456.99,-55C1456.99,-55 1438.09,-55 1438.09,-55 1432.09,-55 1426.09,-49 1426.09,-43 1426.09,-43 1426.09,-31 1426.09,-31 1426.09,-25 1432.09,-19 1438.09,-19 1438.09,-19 1456.99,-19 1456.99,-19 1462.99,-19 1468.99,-25 1468.99,-31 1468.99,-31 1468.99,-43 1468.99,-43 1468.99,-49 1462.99,-55 1456.99,-55"/>
<text text-anchor="middle" x="1447.54" y="-32.8" font-family="Times,serif" font-size="14.00">sb18</text>
</g>
<!-- sb17&#45;&gt;sb18 -->
<g id="edge13" class="edge">
<title>sb17&#45;&gt;sb18</title>
<path fill="none" stroke="royalblue" stroke-width="2.65" d="M1390.76,-83C1419.05,-83 1440.66,-83 1440.66,-83 1440.66,-83 1440.66,-65.18 1440.66,-65.18"/>
<polygon fill="royalblue" stroke="royalblue" stroke-width="2.65" points="1444.16,-65.18 1440.66,-55.18 1437.16,-65.18 1444.16,-65.18"/>
</g>
<!-- sb1 -->
<g id="node17" class="node">
<title>sb1</title>
<path fill="none" stroke="royalblue" d="M2098.47,-101C2098.47,-101 2086.5,-101 2086.5,-101 2080.52,-101 2074.54,-95.02 2074.54,-89.03 2074.54,-89.03 2074.54,-76.97 2074.54,-76.97 2074.54,-70.98 2080.52,-65 2086.5,-65 2086.5,-65 2098.47,-65 2098.47,-65 2104.45,-65 2110.44,-70.98 2110.44,-76.97 2110.44,-76.97 2110.44,-89.03 2110.44,-89.03 2110.44,-95.02 2104.45,-101 2098.47,-101"/>
<text text-anchor="middle" x="2092.49" y="-78.8" font-family="Times,serif" font-size="14.00">sb1</text>
</g>
<!-- sb19&#45;&gt;sb1 -->
<g id="edge14" class="edge">
<title>sb19&#45;&gt;sb1</title>
<path fill="none" stroke="royalblue" stroke-width="2.45" d="M2038.8,-83C2038.8,-83 2064.43,-83 2064.43,-83"/>
<polygon fill="royalblue" stroke="royalblue" stroke-width="2.45" points="2064.43,-86.5 2074.43,-83 2064.43,-79.5 2064.43,-86.5"/>
</g>
<!-- sb4 -->
<g id="node10" class="node">
<title>sb4</title>
<path fill="none" stroke="royalblue" d="M95.16,-101C95.16,-101 83.19,-101 83.19,-101 77.2,-101 71.22,-95.02 71.22,-89.03 71.22,-89.03 71.22,-76.97 71.22,-76.97 71.22,-70.98 77.2,-65 83.19,-65 83.19,-65 95.16,-65 95.16,-65 101.14,-65 107.12,-70.98 107.12,-76.97 107.12,-76.97 107.12,-89.03 107.12,-89.03 107.12,-95.02 101.14,-101 95.16,-101"/>
<text text-anchor="middle" x="89.17" y="-78.8" font-family="Times,serif" font-size="14.00">sb4</text>
</g>
<!-- sb5 -->
<g id="node11" class="node">
<title>sb5</title>
<path fill="none" stroke="royalblue" d="M166.6,-101C166.6,-101 154.64,-101 154.64,-101 148.65,-101 142.67,-95.02 142.67,-89.03 142.67,-89.03 142.67,-76.97 142.67,-76.97 142.67,-70.98 148.65,-65 154.64,-65 154.64,-65 166.6,-65 166.6,-65 172.59,-65 178.57,-70.98 178.57,-76.97 178.57,-76.97 178.57,-89.03 178.57,-89.03 178.57,-95.02 172.59,-101 166.6,-101"/>
<text text-anchor="middle" x="160.62" y="-78.8" font-family="Times,serif" font-size="14.00">sb5</text>
</g>
<!-- sb4&#45;&gt;sb5 -->
<g id="edge15" class="edge">
<title>sb4&#45;&gt;sb5</title>
<path fill="none" stroke="royalblue" stroke-width="2.24" d="M107.2,-83C107.2,-83 132.84,-83 132.84,-83"/>
<polygon fill="royalblue" stroke="royalblue" stroke-width="2.24" points="132.84,-86.5 142.84,-83 132.84,-79.5 132.84,-86.5"/>
</g>
<!-- sb5&#45;&gt;sb6 -->
<g id="edge16" class="edge">
<title>sb5&#45;&gt;sb6</title>
<path fill="none" stroke="royalblue" stroke-width="2.45" d="M178.35,-83C178.35,-83 204.32,-83 204.32,-83"/>
<polygon fill="royalblue" stroke="royalblue" stroke-width="2.45" points="204.32,-86.5 214.32,-83 204.32,-79.5 204.32,-86.5"/>
</g>
<!-- sb9 -->
<g id="node13" class="node">
<title>sb9</title>
<path fill="none" stroke="royalblue" d="M459.95,-185C459.95,-185 447.98,-185 447.98,-185 442,-185 436.01,-179.02 436.01,-173.03 436.01,-173.03 436.01,-160.97 436.01,-160.97 436.01,-154.98 442,-149 447.98,-149 447.98,-149 459.95,-149 459.95,-149 465.93,-149 471.92,-154.98 471.92,-160.97 471.92,-160.97 471.92,-173.03 471.92,-173.03 471.92,-179.02 465.93,-185 459.95,-185"/>
<text text-anchor="middle" x="453.97" y="-162.8" font-family="Times,serif" font-size="14.00">sb9</text>
</g>
<!-- sb8&#45;&gt;sb9 -->
<g id="edge17" class="edge">
<title>sb8&#45;&gt;sb9</title>
<path fill="none" stroke="royalblue" stroke-width="2.24" d="M379.66,-147.11C379.66,-156.9 379.66,-167 379.66,-167 379.66,-167 425.98,-167 425.98,-167"/>
<polygon fill="royalblue" stroke="royalblue" stroke-width="2.24" points="425.98,-170.5 435.98,-167 425.98,-163.5 425.98,-170.5"/>
</g>
<!-- sb11 -->
<g id="node19" class="node">
<title>sb11</title>
<path fill="none" stroke="royalblue" d="M687.49,-147C687.49,-147 669.62,-147 669.62,-147 663.62,-147 657.62,-141 657.62,-135 657.62,-135 657.62,-123 657.62,-123 657.62,-117 663.62,-111 669.62,-111 669.62,-111 687.49,-111 687.49,-111 693.49,-111 699.49,-117 699.49,-123 699.49,-123 699.49,-135 699.49,-135 699.49,-141 693.49,-147 687.49,-147"/>
<text text-anchor="middle" x="678.55" y="-124.8" font-family="Times,serif" font-size="14.00">sb11</text>
</g>
<!-- sb8&#45;&gt;sb11 -->
<g id="edge18" class="edge">
<title>sb8&#45;&gt;sb11</title>
<path fill="none" stroke="royalblue" d="M396.86,-129C396.86,-129 647.27,-129 647.27,-129"/>
<polygon fill="royalblue" stroke="royalblue" points="647.27,-132.5 657.27,-129 647.27,-125.5 647.27,-132.5"/>
</g>
<!-- sb0 -->
<g id="node14" class="node">
<title>sb0</title>
<path fill="none" stroke="royalblue" d="M531.4,-185C531.4,-185 519.43,-185 519.43,-185 513.45,-185 507.46,-179.02 507.46,-173.03 507.46,-173.03 507.46,-160.97 507.46,-160.97 507.46,-154.98 513.45,-149 519.43,-149 519.43,-149 531.4,-149 531.4,-149 537.38,-149 543.36,-154.98 543.36,-160.97 543.36,-160.97 543.36,-173.03 543.36,-173.03 543.36,-179.02 537.38,-185 531.4,-185"/>
<text text-anchor="middle" x="525.41" y="-162.8" font-family="Times,serif" font-size="14.00">sb0</text>
</g>
<!-- sb9&#45;&gt;sb0 -->
<g id="edge19" class="edge">
<title>sb9&#45;&gt;sb0</title>
<path fill="none" stroke="royalblue" stroke-width="1.41" d="M471.99,-167C471.99,-167 497.64,-167 497.64,-167"/>
<polygon fill="royalblue" stroke="royalblue" stroke-width="1.41" points="497.64,-170.5 507.64,-167 497.64,-163.5 497.64,-170.5"/>
</g>
<!-- sb10 -->
<g id="node15" class="node">
<title>sb10</title>
<path fill="none" stroke="royalblue" d="M609.81,-189C609.81,-189 590.91,-189 590.91,-189 584.91,-189 578.91,-183 578.91,-177 578.91,-177 578.91,-165 578.91,-165 578.91,-159 584.91,-153 590.91,-153 590.91,-153 609.81,-153 609.81,-153 615.81,-153 621.81,-159 621.81,-165 621.81,-165 621.81,-177 621.81,-177 621.81,-183 615.81,-189 609.81,-189"/>
<text text-anchor="middle" x="600.36" y="-166.8" font-family="Times,serif" font-size="14.00">sb10</text>
</g>
<!-- sb9&#45;&gt;sb10 -->
<g id="edge20" class="edge">
<title>sb9&#45;&gt;sb10</title>
<path fill="none" stroke="royalblue" stroke-width="1.73" d="M454.66,-185.13C454.66,-195.71 454.66,-207 454.66,-207 454.66,-207 600.66,-207 600.66,-207 600.66,-207 600.66,-199.42 600.66,-199.42"/>
<polygon fill="royalblue" stroke="royalblue" stroke-width="1.73" points="604.16,-199.42 600.66,-189.42 597.16,-199.42 604.16,-199.42"/>
</g>
<!-- sb0&#45;&gt;sb10 -->
<g id="edge21" class="edge">
<title>sb0&#45;&gt;sb10</title>
<path fill="none" stroke="royalblue" stroke-width="1.41" d="M543.18,-169C543.18,-169 568.99,-169 568.99,-169"/>
<polygon fill="royalblue" stroke="royalblue" stroke-width="1.41" points="568.99,-172.5 578.99,-169 568.99,-165.5 568.99,-172.5"/>
</g>
<!-- sb10&#45;&gt;sb12 -->
<g id="edge22" class="edge">
<title>sb10&#45;&gt;sb12</title>
<path fill="none" stroke="royalblue" stroke-width="1.41" d="M600.66,-152.8C600.66,-128.64 600.66,-89 600.66,-89 600.66,-89 725.37,-89 725.37,-89"/>
<polygon fill="royalblue" stroke="royalblue" stroke-width="1.41" points="725.37,-92.5 735.37,-89 725.37,-85.5 725.37,-92.5"/>
</g>
<!-- sb10&#45;&gt;sb11 -->
<g id="edge23" class="edge">
<title>sb10&#45;&gt;sb11</title>
<path fill="none" stroke="royalblue" stroke-width="1.73" d="M621.76,-172C644.94,-172 678.66,-172 678.66,-172 678.66,-172 678.66,-157.49 678.66,-157.49"/>
<polygon fill="royalblue" stroke="royalblue" stroke-width="1.73" points="682.16,-157.49 678.66,-147.49 675.16,-157.49 682.16,-157.49"/>
</g>
<!-- sb18&#45;&gt;sb19 -->
<g id="edge24" class="edge">
<title>sb18&#45;&gt;sb19</title>
<path fill="none" stroke="royalblue" stroke-width="2.65" d="M1454.66,-55.07C1454.66,-64.46 1454.66,-74 1454.66,-74 1454.66,-74 1494.56,-74 1494.56,-74"/>
<polygon fill="royalblue" stroke="royalblue" stroke-width="2.65" points="1494.56,-77.5 1504.56,-74 1494.56,-70.5 1494.56,-77.5"/>
</g>
<!-- sb2 -->
<g id="node20" class="node">
<title>sb2</title>
<path fill="none" stroke="royalblue" d="M2169.92,-101C2169.92,-101 2157.95,-101 2157.95,-101 2151.97,-101 2145.98,-95.02 2145.98,-89.03 2145.98,-89.03 2145.98,-76.97 2145.98,-76.97 2145.98,-70.98 2151.97,-65 2157.95,-65 2157.95,-65 2169.92,-65 2169.92,-65 2175.9,-65 2181.89,-70.98 2181.89,-76.97 2181.89,-76.97 2181.89,-89.03 2181.89,-89.03 2181.89,-95.02 2175.9,-101 2169.92,-101"/>
<text text-anchor="middle" x="2163.94" y="-78.8" font-family="Times,serif" font-size="14.00">sb2</text>
</g>
<!-- sb1&#45;&gt;sb2 -->
<g id="edge25" class="edge">
<title>sb1&#45;&gt;sb2</title>
<path fill="none" stroke="royalblue" stroke-width="2.24" d="M2110.52,-83C2110.52,-83 2136.16,-83 2136.16,-83"/>
<polygon fill="royalblue" stroke="royalblue" stroke-width="2.24" points="2136.16,-86.5 2146.16,-83 2136.16,-79.5 2136.16,-86.5"/>
</g>
<!-- sb3 -->
<g id="node18" class="node">
<title>sb3</title>
<path fill="none" stroke="royalblue" d="M23.71,-101C23.71,-101 11.74,-101 11.74,-101 5.76,-101 -0.23,-95.02 -0.23,-89.03 -0.23,-89.03 -0.23,-76.97 -0.23,-76.97 -0.23,-70.98 5.76,-65 11.74,-65 11.74,-65 23.71,-65 23.71,-65 29.69,-65 35.68,-70.98 35.68,-76.97 35.68,-76.97 35.68,-89.03 35.68,-89.03 35.68,-95.02 29.69,-101 23.71,-101"/>
<text text-anchor="middle" x="17.72" y="-78.8" font-family="Times,serif" font-size="14.00">sb3</text>
</g>
<!-- sb3&#45;&gt;sb4 -->
<g id="edge26" class="edge">
<title>sb3&#45;&gt;sb4</title>
<path fill="none" stroke="royalblue" stroke-width="2" d="M35.75,-83C35.75,-83 61.4,-83 61.4,-83"/>
<polygon fill="royalblue" stroke="royalblue" stroke-width="2" points="61.4,-86.5 71.4,-83 61.4,-79.5 61.4,-86.5"/>
</g>
<!-- sb11&#45;&gt;sb12 -->
<g id="edge27" class="edge">
<title>sb11&#45;&gt;sb12</title>
<path fill="none" stroke="royalblue" stroke-width="2" d="M699.75,-115C723.18,-115 757.66,-115 757.66,-115 757.66,-115 757.66,-111.24 757.66,-111.24"/>
<polygon fill="royalblue" stroke="royalblue" stroke-width="2" points="761.16,-111.24 757.66,-101.24 754.16,-111.24 761.16,-111.24"/>
</g>
<!-- sb20&#45;&gt;sb15 -->
<g id="edge28" class="edge">
<title>sb20&#45;&gt;sb15</title>
<path fill="none" stroke="royalblue" d="M400.45,-27.5C509.94,-27.5 1001.66,-27.5 1001.66,-27.5 1001.66,-27.5 1001.66,-54.83 1001.66,-54.83"/>
<polygon fill="royalblue" stroke="royalblue" points="998.16,-54.83 1001.66,-64.83 1005.16,-54.83 998.16,-54.83"/>
</g>
<!-- sb21&#45;&gt;sb17 -->
<g id="edge29" class="edge">
<title>sb21&#45;&gt;sb17</title>
<path fill="none" stroke="royalblue" d="M1015.04,-137C1078.4,-137 1260.66,-137 1260.66,-137 1260.66,-137 1260.66,-111.28 1260.66,-111.28"/>
<polygon fill="royalblue" stroke="royalblue" points="1264.16,-111.28 1260.66,-101.28 1257.16,-111.28 1264.16,-111.28"/>
</g>
</g>
</svg>
